<svg width="24" height="24" viewBox="0 0 24 24" fill="none" xmlns="http://www.w3.org/2000/svg">
<path d="M18 11C18.5523 11 19 11.4477 19 12C19 12.5523 18.5523 13 18 13H4C3.44772 13 3 12.5523 3 12C3 11.4477 3.44772 11 4 11H18Z" fill="#E3E4E6"/>
<path d="M12.293 4.29289C12.6835 3.90237 13.3165 3.90237 13.707 4.29289L20.707 11.2929C21.0976 11.6834 21.0976 12.3164 20.707 12.707L13.707 19.707C13.3165 20.0975 12.6835 20.0975 12.293 19.707C11.9024 19.3164 11.9024 18.6834 12.293 18.2929L18.5859 11.9999L12.293 5.70696C11.9024 5.31643 11.9024 4.68342 12.293 4.29289Z" fill="black"/>
</svg>
